<svg xmlns="http://www.w3.org/2000/svg" width="800" height="800" version="1.0" viewBox="0 0 600 650">
  <path fill="#F5F5F5" d="m180.6 81.8-10.9 17.6-4.4 16.6-4.3 16.5v62l-20.8 10.9-20.7 11-15 17.3c-11.4 13.3-15.1 18.2-15.3 20.6-.2 1.8.1 12.5.8 23.8l1.1 20.7-16.5 22.8L58 344.5v10.6c0 12.2-1.4 10.8 12.3 13 6.1 1 7.7 1.6 7.5 2.9-.2 1.1-2.4 1.7-8.6 2.4l-8.3.8 3.8 4.7c2 2.5 6.2 7.6 9.2 11.3l5.5 6.8h13.5l3.1 4.6c1.8 2.5 8.5 8.9 14.9 14.3l11.8 9.8 20.1.7 20.1.8 15.3-6.7c8.4-3.7 15.6-7 16-7.4.8-.7-9.2-8.8-12.5-10-1.2-.5-6.6-1.6-12-2.6-5.3-1.1-9.4-2.2-9-2.6.5-.4 5.5-.9 11.3-1.1l10.5-.5 11.1 5.8 11 5.9 15 20.7 15.1 20.8 6 16.5 6.1 16.5 2.1 24.4c1.2 13.5 2.3 24.6 2.5 24.8.1.2 4.9-9.7 10.5-21.9l10.3-22.2-.4-11.3c-.2-6.2 0-11.3.4-11.3s3.3 1.1 6.4 2.5l5.6 2.5-.6-3.8c-.3-2-1.3-10.2-2.2-18.2-1-9.5-2.8-18.8-5.1-26.8-1.9-6.8-3.3-12.5-3.1-12.7.2-.2 5 3.2 10.8 7.5 5.8 4.4 10.7 8 11 8 .3 0 1.8-5.1 3.4-11.4l2.8-11.5 4.1 1.9c2.3 1 8.2 3.6 13.1 5.9 4.9 2.3 9 4 9.2 3.9.5-.6-10.6-50.9-11.7-53.1-.7-1.2-6.6-11.4-13.2-22.7-11.4-19.6-12.5-21.1-24.1-32.9l-12.1-12.4 8.5 4.6c25 13.4 18.4 7.3 55.8 51.5l9.6 11.4 7.1 30.3 7.2 30.4-1.9 32.7-2 32.7-17.6 28.8-17.7 28.8-26.8 25.7c-14.8 14.1-26.7 25.7-26.5 25.9.2.1 17.9-2.1 39.3-5l39-5.3 14.9-5.3 14.8-5.4 18.2-38.1 18.2-38.1 1.9-26.2c1-14.4 2.2-25.8 2.5-25.4.4.5 3.2 11.4 6.2 24.3l5.6 23.5-2.1 29.2c-1.1 16.1-1.8 29.5-1.5 29.9.3.3 7.9-4.6 16.9-10.8l16.2-11.3 11.5-15.9 11.5-16-2.1-25.5-2.1-25.6-7.6-23.5c-6.7-20.6-8.9-25.9-17.7-43-8.1-15.7-9.5-19-7.2-16.9 1.6 1.4 9.2 8.4 16.9 15.7l14 13.1 10.9 18.6 10.9 18.7 4.8 18.5c2.7 10.2 5 18.7 5.2 18.9.1.2 5.6-13.6 12.1-30.6l11.8-30.8-8.7-27.9-8.7-27.8-20.6-20.9c-11.4-11.4-20.2-20.7-19.6-20.5.6.2 11.5 5.7 24.1 12.3l23 11.8 13.9 19.3c7.6 10.7 14 18.8 14.1 18.2.1-.7-2.1-15.8-5-33.6l-5.3-32.5-34.4-36.7-34.5-36.8-53.7-21.5-53.7-21.6-47.8-5c-26.3-2.7-49.7-5.2-52-5.5-3.5-.5-7.9-3.5-26.9-18l-22.6-17.3-13.6-20.3-13.5-20.4 6.1-18.4c3.4-10.2 6-18.6 5.9-18.7-.1-.1-5.1 7.7-11.1 17.4zm-23.8 207.9c3.9.9 7.2 1.9 7.2 2.3 0 .3-3.7 1.4-8.2 2.3-7.5 1.6-9 2.3-17.5 8.8-5.1 3.9-11.8 10-14.9 13.5-3.1 3.5-6 6.4-6.5 6.4s-.9-3.3-.9-7.4c0-5.5.7-9.4 2.6-14.8 1.4-4 3-7.7 3.4-8.2 1-1.1 17.9-4.3 23.5-4.5 2.2-.1 7.3.6 11.3 1.6zm28.7 72.9c18.3 1.2 39.2 9.3 57 22.2 5 3.6 8.3 6.2 7.5 5.9-.8-.3-8.5-3.8-17-7.7-9.7-4.5-19.8-8.3-27-10.3-11.4-3-11.7-3-38.2-3.1h-26.6l-1.7-2.8c-.9-1.5-1.5-2.8-1.3-2.9 2.5-.7 29.5-2.6 32.8-2.3 2.5.2 9 .6 14.5 1zm-2.7 18.1c15.7 2.4 28.3 8.3 43.9 20.4 6.7 5.2 12 9.5 11.9 9.6-.2.2-4.9-2.2-10.7-5.3-5.7-3.1-16-8.3-22.8-11.5-14.6-7-23.8-8.9-42.8-8.9-11.5 0-12.3-.1-13.7-2.2-.9-1.2-1.6-2.6-1.6-3 0-1.4 25-.8 35.8.9z"/>
</svg>
